<?xml version="1.0" standalone="no"?>
<!DOCTYPE svg PUBLIC "-//W3C//DTD SVG 20010904//EN"
 "http://www.w3.org/TR/2001/REC-SVG-20010904/DTD/svg10.dtd">
<svg version="1.0" xmlns="http://www.w3.org/2000/svg"
 width="720.000000pt" height="720.000000pt" viewBox="0 0 720.000000 720.000000"
 preserveAspectRatio="xMidYMid meet">
<metadata>
Created by potrace 1.11, written by Peter Selinger 2001-2013
</metadata>
<g transform="translate(0.000000,720.000000) scale(0.100000,-0.100000)"
fill="#000000" stroke="none">
<path d="M3388 7195 c-1 -1 -48 -6 -103 -10 -55 -4 -102 -8 -105 -10 -3 -1
-32 -6 -65 -9 -33 -4 -69 -9 -80 -11 -11 -3 -36 -7 -55 -10 -19 -2 -46 -7 -60
-10 -14 -3 -38 -8 -54 -11 -16 -2 -32 -7 -36 -9 -4 -3 -22 -7 -41 -9 -19 -3
-77 -17 -129 -31 -852 -232 -1588 -766 -2069 -1500 -75 -116 -191 -314 -191
-329 0 -5 -6 -17 -13 -25 -48 -56 -242 -567 -273 -718 -2 -12 -15 -69 -28
-125 -14 -57 -28 -123 -31 -148 -4 -25 -8 -52 -10 -60 -2 -8 -6 -40 -10 -70
-4 -30 -9 -66 -11 -80 -26 -165 -26 -650 2 -848 2 -17 6 -49 9 -70 4 -20 8
-55 11 -77 3 -22 13 -71 21 -110 8 -38 17 -81 19 -95 33 -186 210 -690 280
-797 8 -13 12 -23 9 -23 -4 0 3 -13 14 -29 12 -16 21 -32 21 -36 0 -14 133
-239 200 -340 193 -288 506 -630 729 -795 19 -14 39 -30 45 -36 23 -22 166
-124 261 -185 142 -93 241 -148 401 -224 186 -89 168 -81 395 -163 114 -42
345 -102 499 -131 118 -22 148 -27 240 -36 30 -3 78 -8 105 -12 113 -15 706
-5 735 12 3 2 34 6 70 10 287 30 720 157 1038 306 56 26 104 47 105 46 1 -1
16 8 34 21 17 12 34 22 38 22 12 0 149 83 275 166 160 107 160 107 255 182
373 298 683 664 913 1077 77 139 192 383 192 408 0 7 4 17 9 23 21 22 139 392
154 485 2 13 7 31 10 39 10 27 51 268 62 368 28 250 28 606 -1 854 -5 49 -37
242 -48 297 -35 166 -132 491 -175 586 -10 22 -22 51 -26 65 -13 44 -150 322
-201 410 -28 47 -57 96 -65 110 -7 14 -16 27 -19 30 -3 3 -27 39 -54 80 -27
41 -70 102 -95 135 -25 33 -49 65 -53 70 -41 56 -207 243 -285 321 -218 219
-434 387 -718 561 -111 68 -319 172 -490 243 -198 84 -506 169 -775 216 -19 3
-51 7 -70 9 -19 2 -51 6 -70 10 -19 3 -60 8 -90 11 -66 6 -547 14 -552 9z"/>
</g>
</svg>
